<svg width="20" height="20" viewBox="0 0 20 20" fill="none" xmlns="http://www.w3.org/2000/svg">
<path d="M12.8333 2L17 6.16667V17.84C16.9998 18.0593 16.9125 18.2696 16.7573 18.4246C16.6022 18.5796 16.3918 18.6667 16.1725 18.6667H2.8275C2.60865 18.6651 2.39918 18.5776 2.24435 18.4229C2.08951 18.2682 2.00175 18.0588 2 17.84V2.82667C2 2.37 2.37083 2 2.8275 2H12.8333ZM9.5 9.91667C10.0525 9.91667 10.5824 9.69717 10.9731 9.30647C11.3638 8.91577 11.5833 8.38587 11.5833 7.83333C11.5833 7.2808 11.3638 6.7509 10.9731 6.36019C10.5824 5.96949 10.0525 5.75 9.5 5.75C8.94747 5.75 8.41756 5.96949 8.02686 6.36019C7.63616 6.7509 7.41667 7.2808 7.41667 7.83333C7.41667 8.38587 7.63616 8.91577 8.02686 9.30647C8.41756 9.69717 8.94747 9.91667 9.5 9.91667ZM5.7725 14.5H13.2275C13.1265 13.582 12.6903 12.7336 12.0024 12.1173C11.3146 11.501 10.4235 11.1602 9.5 11.1602C8.57646 11.1602 7.6854 11.501 6.99757 12.1173C6.30974 12.7336 5.87352 13.582 5.7725 14.5Z" fill="#2360D9"/>
</svg>
