<svg width="20" height="20" viewBox="0 0 20 20" fill="none" xmlns="http://www.w3.org/2000/svg">
<path d="M12 3.66667H3.66667V17H15.3333V7H12V3.66667ZM2 2.82667C2 2.37 2.3725 2 2.8325 2H12.8333L17 6.16667V17.8275C17.0008 17.9369 16.98 18.0454 16.9388 18.1468C16.8976 18.2482 16.8369 18.3405 16.7601 18.4185C16.6832 18.4964 16.5918 18.5584 16.491 18.601C16.3902 18.6436 16.2819 18.6659 16.1725 18.6667H2.8275C2.60865 18.6651 2.39918 18.5776 2.24435 18.4229C2.08951 18.2682 2.00175 18.0588 2 17.84V2.82667ZM9.5 9.91667C8.94747 9.91667 8.41756 9.69717 8.02686 9.30647C7.63616 8.91577 7.41667 8.38587 7.41667 7.83333C7.41667 7.2808 7.63616 6.75089 8.02686 6.36019C8.41756 5.96949 8.94747 5.75 9.5 5.75C10.0525 5.75 10.5824 5.96949 10.9731 6.36019C11.3638 6.75089 11.5833 7.2808 11.5833 7.83333C11.5833 8.38587 11.3638 8.91577 10.9731 9.30647C10.5824 9.69717 10.0525 9.91667 9.5 9.91667ZM5.7725 14.5C5.87352 13.582 6.30974 12.7336 6.99757 12.1173C7.6854 11.501 8.57646 11.1602 9.5 11.1602C10.4235 11.1602 11.3146 11.501 12.0024 12.1173C12.6903 12.7336 13.1265 13.582 13.2275 14.5H5.7725Z" fill="#959FB8"/>
</svg>
