<svg width="20" height="20" viewBox="0 0 20 20" fill="none" xmlns="http://www.w3.org/2000/svg">
<path d="M7.5 14.1667C7.5 14.1667 13.3333 15 15.8333 17.5H16.6667C16.8877 17.5 17.0996 17.4122 17.2559 17.2559C17.4122 17.0996 17.5 16.8877 17.5 16.6667V11.6142C17.8581 11.5221 18.1755 11.3135 18.4021 11.0213C18.6287 10.7291 18.7516 10.3698 18.7516 10C18.7516 9.63022 18.6287 9.27093 18.4021 8.97871C18.1755 8.68648 17.8581 8.47791 17.5 8.38583V3.33333C17.5 3.11232 17.4122 2.90036 17.2559 2.74408C17.0996 2.5878 16.8877 2.5 16.6667 2.5H15.8333C13.3333 5 7.5 5.83333 7.5 5.83333H4.16667C3.72464 5.83333 3.30072 6.00893 2.98816 6.32149C2.67559 6.63405 2.5 7.05797 2.5 7.5V12.5C2.5 12.942 2.67559 13.3659 2.98816 13.6785C3.30072 13.9911 3.72464 14.1667 4.16667 14.1667H5L5.83333 18.3333H7.5V14.1667ZM9.16667 7.2175C9.73583 7.09583 10.4392 6.92583 11.2 6.70333C12.5983 6.29167 14.375 5.64417 15.8333 4.645V15.3542C14.375 14.3558 12.5975 13.7083 11.2 13.2967C10.5288 13.1005 9.85055 12.9293 9.16667 12.7833V7.2175ZM4.16667 7.5H7.5V12.5H4.16667V7.5Z" fill="#959FB8"/>
</svg>
