<svg width="19" height="19" viewBox="0 0 19 19" fill="none" xmlns="http://www.w3.org/2000/svg">
<path d="M15.7633 7.5537V3.00259C15.7633 2.80351 15.6843 2.61258 15.5435 2.47181C15.4027 2.33104 15.2118 2.25195 15.0127 2.25195H14.2621C12.7766 3.73746 9.9857 4.56917 8.25698 4.964V13.0514C9.9857 13.4462 12.7766 14.2779 14.2621 15.7634H15.0127C15.2118 15.7634 15.4027 15.6843 15.5435 15.5435C15.6843 15.4028 15.7633 15.2118 15.7633 15.0128V10.4617C16.0859 10.3787 16.3718 10.1908 16.5759 9.92762C16.78 9.66439 16.8908 9.34077 16.8908 9.00768C16.8908 8.67459 16.78 8.35096 16.5759 8.08774C16.3718 7.82451 16.0859 7.63664 15.7633 7.5537ZM3.75316 5.2545C3.355 5.2545 2.97315 5.41267 2.6916 5.69421C2.41006 5.97575 2.25189 6.35761 2.25189 6.75577V11.2596C2.25189 11.6577 2.41006 12.0396 2.6916 12.3211C2.97315 12.6027 3.355 12.7609 3.75316 12.7609H4.5038L5.25444 16.514H6.75571V5.2545H3.75316Z" fill="#2360D9"/>
</svg>
