<svg width="20" height="20" viewBox="0 0 20 20" fill="none" xmlns="http://www.w3.org/2000/svg">
<path d="M17.6666 16.3333H19.3333V18H0.999939V16.3333H2.66661V3.83333C2.66661 3.61232 2.7544 3.40036 2.91068 3.24408C3.06696 3.0878 3.27893 3 3.49994 3H11.8333C12.0543 3 12.2662 3.0878 12.4225 3.24408C12.5788 3.40036 12.6666 3.61232 12.6666 3.83333V16.3333H15.9999V9.66667H14.3333V8H16.8333C17.0543 8 17.2662 8.0878 17.4225 8.24408C17.5788 8.40036 17.6666 8.61232 17.6666 8.83333V16.3333ZM4.33327 4.66667V16.3333H10.9999V4.66667H4.33327ZM5.99994 9.66667H9.33327V11.3333H5.99994V9.66667ZM5.99994 6.33333H9.33327V8H5.99994V6.33333Z" fill="#959FB8"/>
</svg>
