<svg width="20" height="20" viewBox="0 0 20 20" fill="none" xmlns="http://www.w3.org/2000/svg">
<path d="M17.6667 16.3333H19.3333V18H1V16.3333H2.66667V3.83333C2.66667 3.61232 2.75446 3.40036 2.91074 3.24408C3.06702 3.0878 3.27899 3 3.5 3H11.8333C12.0543 3 12.2663 3.0878 12.4226 3.24408C12.5789 3.40036 12.6667 3.61232 12.6667 3.83333V16.3333H14.3333V8H16.8333C17.0543 8 17.2663 8.0878 17.4226 8.24408C17.5789 8.40036 17.6667 8.61232 17.6667 8.83333V16.3333ZM6 9.66667V11.3333H9.33333V9.66667H6ZM6 6.33333V8H9.33333V6.33333H6Z" fill="#2360D9"/>
</svg>
