<svg width="20" height="20" viewBox="0 0 20 20" fill="none" xmlns="http://www.w3.org/2000/svg">
<path d="M7.94167 9.91667H9.75C10.2425 9.91667 10.7301 10.0137 11.1851 10.2021C11.64 10.3906 12.0534 10.6668 12.4017 11.015C12.7499 11.3632 13.0261 11.7766 13.2145 12.2316C13.403 12.6866 13.5 13.1742 13.5 13.6667H7.66583V14.5H14.3325V13.6667C14.3291 12.7802 14.0733 11.913 13.595 11.1667H16C16.7878 11.1665 17.5595 11.3897 18.2256 11.8104C18.8917 12.231 19.4249 12.8319 19.7633 13.5433C17.7925 16.1433 14.6017 17.8342 11 17.8342C8.69917 17.8342 6.75 17.3425 5.16667 16.48V8.72667C6.1804 8.87177 7.13774 9.28231 7.94167 9.91667ZM4.33333 16.1667C4.33333 16.3877 4.24554 16.5996 4.08926 16.7559C3.93298 16.9122 3.72101 17 3.5 17H1.83333C1.61232 17 1.40036 16.9122 1.24408 16.7559C1.0878 16.5996 1 16.3877 1 16.1667V8.66667C1 8.44565 1.0878 8.23369 1.24408 8.07741C1.40036 7.92113 1.61232 7.83333 1.83333 7.83333H3.5C3.72101 7.83333 3.93298 7.92113 4.08926 8.07741C4.24554 8.23369 4.33333 8.44565 4.33333 8.66667V16.1667ZM15.1667 4.5C15.8297 4.5 16.4656 4.76339 16.9344 5.23223C17.4033 5.70107 17.6667 6.33696 17.6667 7C17.6667 7.66304 17.4033 8.29893 16.9344 8.76777C16.4656 9.23661 15.8297 9.5 15.1667 9.5C14.5036 9.5 13.8677 9.23661 13.3989 8.76777C12.9301 8.29893 12.6667 7.66304 12.6667 7C12.6667 6.33696 12.9301 5.70107 13.3989 5.23223C13.8677 4.76339 14.5036 4.5 15.1667 4.5ZM9.33333 2C9.99638 2 10.6323 2.26339 11.1011 2.73223C11.5699 3.20107 11.8333 3.83696 11.8333 4.5C11.8333 5.16304 11.5699 5.79893 11.1011 6.26777C10.6323 6.73661 9.99638 7 9.33333 7C8.67029 7 8.03441 6.73661 7.56557 6.26777C7.09673 5.79893 6.83333 5.16304 6.83333 4.5C6.83333 3.83696 7.09673 3.20107 7.56557 2.73223C8.03441 2.26339 8.67029 2 9.33333 2Z" fill="#2360D9"/>
</svg>
