<svg width="20" height="20" viewBox="0 0 20 20" fill="none" xmlns="http://www.w3.org/2000/svg">
<path d="M4.33417 7.83333C4.55518 7.83333 4.76714 7.92113 4.92342 8.07741C5.0797 8.23369 5.1675 8.44565 5.1675 8.66667C6.47679 8.66474 7.74832 9.10522 8.77583 9.91667H10.5842C11.6942 9.91667 12.6925 10.4 13.3792 11.1667H16.0008C16.7886 11.1664 17.5602 11.3895 18.2263 11.81C18.8924 12.2305 19.4256 12.8313 19.7642 13.5425C17.7933 16.1425 14.6025 17.8333 11.0008 17.8333C8.67583 17.8333 6.70917 17.3308 5.11667 16.4517C5.05816 16.6124 4.95161 16.7513 4.81147 16.8494C4.67133 16.9475 4.5044 17.0001 4.33333 17H1.83333C1.61232 17 1.40036 16.9122 1.24408 16.7559C1.0878 16.5996 1 16.3877 1 16.1667V8.66667C1 8.44565 1.0878 8.23369 1.24408 8.07741C1.40036 7.92113 1.61232 7.83333 1.83333 7.83333H4.33417ZM5.1675 10.3333V14.5183L5.205 14.545C6.7 15.595 8.64917 16.1667 11.0008 16.1667C13.5042 16.1667 15.8325 15.2033 17.53 13.5583L17.6408 13.4475L17.5408 13.3642C17.1472 13.0562 16.6703 12.8734 16.1717 12.8392L16.0008 12.8333H14.2408C14.3019 13.1017 14.3331 13.3794 14.3342 13.6667V14.5H6.83417V12.8333L12.4925 12.8325L12.4642 12.7667C12.3044 12.4331 12.0587 12.148 11.7524 11.9408C11.446 11.7335 11.0899 11.6116 10.7208 11.5875L10.5842 11.5833H8.1425C7.75464 11.1876 7.29175 10.8733 6.78092 10.6586C6.27009 10.444 5.72159 10.3334 5.1675 10.3333ZM3.50083 9.5H2.6675V15.3333H3.50083V9.5ZM15.1675 4.5C15.8305 4.5 16.4664 4.76339 16.9353 5.23223C17.4041 5.70107 17.6675 6.33696 17.6675 7C17.6675 7.66304 17.4041 8.29893 16.9353 8.76777C16.4664 9.23661 15.8305 9.5 15.1675 9.5C14.5045 9.5 13.8686 9.23661 13.3997 8.76777C12.9309 8.29893 12.6675 7.66304 12.6675 7C12.6675 6.33696 12.9309 5.70107 13.3997 5.23223C13.8686 4.76339 14.5045 4.5 15.1675 4.5ZM15.1675 6.16667C14.9465 6.16667 14.7345 6.25446 14.5782 6.41074C14.422 6.56702 14.3342 6.77899 14.3342 7C14.3342 7.22101 14.422 7.43297 14.5782 7.58926C14.7345 7.74554 14.9465 7.83333 15.1675 7.83333C15.3885 7.83333 15.6005 7.74554 15.7568 7.58926C15.913 7.43297 16.0008 7.22101 16.0008 7C16.0008 6.77899 15.913 6.56702 15.7568 6.41074C15.6005 6.25446 15.3885 6.16667 15.1675 6.16667ZM9.33417 2C9.99721 2 10.6331 2.26339 11.1019 2.73223C11.5708 3.20107 11.8342 3.83696 11.8342 4.5C11.8342 5.16304 11.5708 5.79893 11.1019 6.26777C10.6331 6.73661 9.99721 7 9.33417 7C8.67113 7 8.03524 6.73661 7.5664 6.26777C7.09756 5.79893 6.83417 5.16304 6.83417 4.5C6.83417 3.83696 7.09756 3.20107 7.5664 2.73223C8.03524 2.26339 8.67113 2 9.33417 2ZM9.33417 3.66667C9.11315 3.66667 8.90119 3.75446 8.74491 3.91074C8.58863 4.06702 8.50083 4.27899 8.50083 4.5C8.50083 4.72101 8.58863 4.93298 8.74491 5.08926C8.90119 5.24554 9.11315 5.33333 9.33417 5.33333C9.55518 5.33333 9.76714 5.24554 9.92342 5.08926C10.0797 4.93298 10.1675 4.72101 10.1675 4.5C10.1675 4.27899 10.0797 4.06702 9.92342 3.91074C9.76714 3.75446 9.55518 3.66667 9.33417 3.66667Z" fill="#959FB8"/>
</svg>
