<svg width="20" height="20" viewBox="0 0 20 20" fill="none" xmlns="http://www.w3.org/2000/svg">
<path d="M4.16669 14.1667C4.16669 14.6087 4.34228 15.0326 4.65484 15.3452C4.9674 15.6577 5.39133 15.8333 5.83335 15.8333C6.27538 15.8333 6.6993 15.6577 7.01186 15.3452C7.32443 15.0326 7.50002 14.6087 7.50002 14.1667C7.50002 13.7246 7.32443 13.3007 7.01186 12.9882C6.6993 12.6756 6.27538 12.5 5.83335 12.5C5.39133 12.5 4.9674 12.6756 4.65484 12.9882C4.34228 13.3007 4.16669 13.7246 4.16669 14.1667ZM12.5 14.1667C12.5 14.6087 12.6756 15.0326 12.9882 15.3452C13.3007 15.6577 13.7247 15.8333 14.1667 15.8333C14.6087 15.8333 15.0326 15.6577 15.3452 15.3452C15.6578 15.0326 15.8334 14.6087 15.8334 14.1667C15.8334 13.7246 15.6578 13.3007 15.3452 12.9882C15.0326 12.6756 14.6087 12.5 14.1667 12.5C13.7247 12.5 13.3007 12.6756 12.9882 12.9882C12.6756 13.3007 12.5 13.7246 12.5 14.1667Z" stroke="#959FB8" stroke-width="1.5" stroke-linecap="round" stroke-linejoin="round"/>
<path d="M4.16667 14.1667H2.5V5.00008C2.5 4.77907 2.5878 4.56711 2.74408 4.41083C2.90036 4.25455 3.11232 4.16675 3.33333 4.16675H10.8333V14.1667M7.5 14.1667H12.5M15.8333 14.1667H17.5V9.16675M17.5 9.16675H10.8333M17.5 9.16675L15 5.00008H10.8333" stroke="#959FB8" stroke-width="1.5" stroke-linecap="round" stroke-linejoin="round"/>
</svg>
