<svg width="20" height="20" viewBox="0 0 20 20" fill="none" xmlns="http://www.w3.org/2000/svg">
<path d="M10.8334 3.33325C11.0544 3.33325 11.2663 3.42105 11.4226 3.57733C11.5789 3.73361 11.6667 3.94557 11.6667 4.16659H15C15.1255 4.16659 15.2493 4.19492 15.3623 4.24946C15.4753 4.304 15.5745 4.38335 15.6525 4.48159L15.7142 4.57159L18.2142 8.73825L18.26 8.82409L18.2934 8.91325L18.3175 9.00409L18.3309 9.09575L18.3334 9.16659V14.1666C18.3334 14.3876 18.2456 14.5996 18.0893 14.7558C17.933 14.9121 17.721 14.9999 17.5 14.9999H16.5242C16.3517 15.4873 16.0324 15.9092 15.6102 16.2076C15.188 16.506 14.6837 16.6663 14.1667 16.6663C13.6497 16.6663 13.1454 16.506 12.7232 16.2076C12.301 15.9092 11.9817 15.4873 11.8092 14.9999H8.19085C8.01834 15.4873 7.69902 15.9092 7.27683 16.2076C6.85465 16.506 6.35035 16.6663 5.83335 16.6663C5.31635 16.6663 4.81206 16.506 4.38987 16.2076C3.96769 15.9092 3.64837 15.4873 3.47585 14.9999H2.50002C2.27901 14.9999 2.06704 14.9121 1.91076 14.7558C1.75448 14.5996 1.66669 14.3876 1.66669 14.1666V4.99992C1.66669 4.55789 1.84228 4.13397 2.15484 3.82141C2.4674 3.50885 2.89133 3.33325 3.33335 3.33325H10.8334ZM5.83335 13.3333C5.61234 13.3333 5.40038 13.421 5.2441 13.5773C5.08782 13.7336 5.00002 13.9456 5.00002 14.1666C5.00002 14.3876 5.08782 14.5996 5.2441 14.7558C5.40038 14.9121 5.61234 14.9999 5.83335 14.9999C6.05437 14.9999 6.26633 14.9121 6.42261 14.7558C6.57889 14.5996 6.66669 14.3876 6.66669 14.1666C6.66669 13.9456 6.57889 13.7336 6.42261 13.5773C6.26633 13.421 6.05437 13.3333 5.83335 13.3333ZM14.1667 13.3333C13.9457 13.3333 13.7337 13.421 13.5774 13.5773C13.4212 13.7336 13.3334 13.9456 13.3334 14.1666C13.3334 14.3876 13.4212 14.5996 13.5774 14.7558C13.7337 14.9121 13.9457 14.9999 14.1667 14.9999C14.3877 14.9999 14.5997 14.9121 14.7559 14.7558C14.9122 14.5996 15 14.3876 15 14.1666C15 13.9456 14.9122 13.7336 14.7559 13.5773C14.5997 13.421 14.3877 13.3333 14.1667 13.3333ZM14.5284 5.83325H11.6667V8.33325H16.0284L14.5284 5.83325Z" fill="#2360D9"/>
</svg>
