<svg width="20" height="20" viewBox="0 0 20 20" fill="none" xmlns="http://www.w3.org/2000/svg">
<path d="M9.91831 10.5142L14.9183 18.0142H4.91831L9.91831 10.5142ZM9.03498 8.48083C8.91216 8.3664 8.81366 8.2284 8.74534 8.07506C8.67702 7.92173 8.64029 7.75621 8.63732 7.58837C8.63436 7.42053 8.66524 7.25382 8.7281 7.09817C8.79097 6.94252 8.88455 6.80113 9.00325 6.68244C9.12194 6.56374 9.26333 6.47016 9.41898 6.4073C9.57463 6.34443 9.74134 6.31355 9.90918 6.31651C10.077 6.31948 10.2425 6.35621 10.3959 6.42453C10.5492 6.49285 10.6872 6.59135 10.8016 6.71417C11.0224 6.95112 11.1426 7.26454 11.1369 7.58837C11.1312 7.91221 11 8.22118 10.771 8.4502C10.542 8.67922 10.233 8.81041 9.90918 8.81612C9.58534 8.82184 9.27193 8.70163 9.03498 8.48083ZM4.31914 2L5.49831 3.17917C4.32636 4.35125 3.66798 5.94085 3.66798 7.59833C3.66798 9.25581 4.32636 10.8454 5.49831 12.0175L4.31914 13.1967C3.58389 12.4615 3.00065 11.5887 2.60273 10.6282C2.20481 9.66761 2 8.63806 2 7.59833C2 6.55861 2.20481 5.52906 2.60273 4.56849C3.00065 3.60792 3.58389 2.73515 4.31914 2ZM15.5158 2C16.2511 2.73515 16.8343 3.60792 17.2322 4.56849C17.6301 5.52906 17.835 6.55861 17.835 7.59833C17.835 8.63806 17.6301 9.66761 17.2322 10.6282C16.8343 11.5887 16.2511 12.4615 15.5158 13.1967L14.3366 12.0175C15.5086 10.8454 16.167 9.25581 16.167 7.59833C16.167 5.94085 15.5086 4.35125 14.3366 3.17917L15.5158 2ZM6.67664 4.35667L7.85498 5.535C7.58411 5.80584 7.36924 6.12739 7.22265 6.48127C7.07605 6.83516 7.0006 7.21445 7.0006 7.5975C7.0006 7.98055 7.07605 8.35984 7.22265 8.71373C7.36924 9.06761 7.58411 9.38916 7.85498 9.66L6.67664 10.8383C5.81715 9.9788 5.33429 8.81304 5.33429 7.5975C5.33429 6.38196 5.81715 5.2162 6.67664 4.35667ZM13.1583 4.35667C14.0178 5.2162 14.5007 6.38196 14.5007 7.5975C14.5007 8.81304 14.0178 9.9788 13.1583 10.8383L11.98 9.66C12.2508 9.38916 12.4657 9.06761 12.6123 8.71373C12.7589 8.35984 12.8344 7.98055 12.8344 7.5975C12.8344 7.21445 12.7589 6.83516 12.6123 6.48127C12.4657 6.12739 12.2508 5.80584 11.98 5.535L13.1583 4.35667Z" fill="#2360D9"/>
</svg>
