<svg width="20" height="20" viewBox="0 0 20 20" fill="none" xmlns="http://www.w3.org/2000/svg">
<path d="M16.1667 18.6667H4.50006C3.83702 18.6667 3.20113 18.4033 2.73229 17.9344C2.26345 17.4656 2.00006 16.8297 2.00006 16.1667V2.83333C2.00006 2.61232 2.08786 2.40036 2.24414 2.24408C2.40042 2.0878 2.61238 2 2.83339 2H14.5001C14.7211 2 14.933 2.0878 15.0893 2.24408C15.2456 2.40036 15.3334 2.61232 15.3334 2.83333V12.8333H18.6667V16.1667C18.6667 16.8297 18.4033 17.4656 17.9345 17.9344C17.4657 18.4033 16.8298 18.6667 16.1667 18.6667ZM15.3334 14.5V16.1667C15.3334 16.3877 15.4212 16.5996 15.5775 16.7559C15.7337 16.9122 15.9457 17 16.1667 17C16.3877 17 16.5997 16.9122 16.756 16.7559C16.9123 16.5996 17.0001 16.3877 17.0001 16.1667V14.5H15.3334ZM13.6667 17V3.66667H3.66673V16.1667C3.66673 16.3877 3.75452 16.5996 3.91081 16.7559C4.06709 16.9122 4.27905 17 4.50006 17H13.6667ZM5.33339 6.16667H12.0001V7.83333H5.33339V6.16667ZM5.33339 9.5H12.0001V11.1667H5.33339V9.5ZM5.33339 12.8333H9.50006V14.5H5.33339V12.8333Z" fill="#959FB8"/>
</svg>
