<svg width="20" height="20" viewBox="0 0 20 20" fill="none" xmlns="http://www.w3.org/2000/svg">
<path d="M16.1667 18.6667H4.5C3.83696 18.6667 3.20107 18.4033 2.73223 17.9344C2.26339 17.4656 2 16.8297 2 16.1667V2.83333C2 2.61232 2.0878 2.40036 2.24408 2.24408C2.40036 2.0878 2.61232 2 2.83333 2H14.5C14.721 2 14.933 2.0878 15.0893 2.24408C15.2455 2.40036 15.3333 2.61232 15.3333 2.83333V12.8333H18.6667V16.1667C18.6667 16.8297 18.4033 17.4656 17.9344 17.9344C17.4656 18.4033 16.8297 18.6667 16.1667 18.6667ZM15.3333 14.5V16.1667C15.3333 16.3877 15.4211 16.5996 15.5774 16.7559C15.7337 16.9122 15.9457 17 16.1667 17C16.3877 17 16.5996 16.9122 16.7559 16.7559C16.9122 16.5996 17 16.3877 17 16.1667V14.5H15.3333ZM5.33333 6.16667V7.83333H12V6.16667H5.33333ZM5.33333 9.5V11.1667H12V9.5H5.33333ZM5.33333 12.8333V14.5H9.5V12.8333H5.33333Z" fill="#2360D9"/>
</svg>
