<svg width="20" height="20" viewBox="0 0 20 20" fill="none" xmlns="http://www.w3.org/2000/svg">
<path d="M7.77919 9.58505H9.58752C10.08 9.58505 10.5676 9.68205 11.0226 9.87051C11.4776 10.059 11.891 10.3352 12.2392 10.6834C12.5874 11.0316 12.8636 11.445 13.0521 11.9C13.2405 12.355 13.3375 12.8426 13.3375 13.3351H7.50336V14.1684H14.17V13.3351C14.1666 12.4486 13.9108 11.5814 13.4325 10.8351H15.8375C16.6253 10.8349 17.397 11.0581 18.0631 11.4788C18.7292 11.8994 19.2624 12.5003 19.6009 13.2117C17.63 15.8117 14.4392 17.5026 10.8375 17.5026C8.53669 17.5026 6.58752 17.0109 5.00419 16.1484V8.39505C6.01792 8.54016 6.97527 8.95069 7.77919 9.58505ZM3.33752 7.50172C3.54176 7.50177 3.73887 7.57682 3.89142 7.71263C4.04397 7.84843 4.14133 8.03553 4.16502 8.23839L4.17086 8.33505V15.8351C4.17086 16.0561 4.08306 16.268 3.92678 16.4243C3.7705 16.5806 3.55854 16.6684 3.33752 16.6684H1.67086C1.44984 16.6684 1.23788 16.5806 1.0816 16.4243C0.925322 16.268 0.837524 16.0561 0.837524 15.8351V8.33505C0.837524 8.11404 0.925322 7.90208 1.0816 7.7458C1.23788 7.58952 1.44984 7.50172 1.67086 7.50172H3.33752ZM11.3759 2.98172L11.6709 3.27672L11.965 2.98172C12.3558 2.59097 12.8858 2.37145 13.4384 2.37145C13.991 2.37145 14.5209 2.59097 14.9117 2.98172C15.3024 3.37247 15.522 3.90245 15.522 4.45505C15.522 5.00766 15.3024 5.53763 14.9117 5.92839L11.67 9.16922L8.43002 5.92755C8.23105 5.73537 8.07233 5.50549 7.96315 5.25131C7.85396 4.99714 7.79649 4.72376 7.79409 4.44714C7.79168 4.17052 7.84439 3.89618 7.94915 3.64015C8.0539 3.38412 8.20859 3.15151 8.4042 2.9559C8.59981 2.76029 8.83242 2.60559 9.08845 2.50084C9.34449 2.39609 9.61882 2.34338 9.89544 2.34578C10.1721 2.34819 10.4454 2.40566 10.6996 2.51484C10.9538 2.62403 11.1837 2.78274 11.3759 2.98172Z" fill="#2360D9"/>
</svg>
