<svg width="20" height="20" viewBox="0 0 20 20" fill="none" xmlns="http://www.w3.org/2000/svg">
<path d="M4.17084 7.50255C4.39185 7.50255 4.60381 7.59035 4.76009 7.74663C4.91637 7.90291 5.00417 8.11487 5.00417 8.33589C6.31346 8.33396 7.58499 8.77444 8.6125 9.58589H10.4208C11.5308 9.58589 12.5283 10.0684 13.215 10.8342L15.8375 10.8359C16.6252 10.8357 17.3969 11.0587 18.0629 11.4793C18.729 11.8998 19.2623 12.5005 19.6008 13.2117C17.63 15.8117 14.4392 17.5026 10.8375 17.5026C8.5125 17.5026 6.54584 16.9992 4.95334 16.1209C4.89483 16.2816 4.78828 16.4205 4.64814 16.5186C4.508 16.6167 4.34107 16.6693 4.17 16.6692H1.67C1.44899 16.6692 1.23703 16.5814 1.08075 16.4251C0.924467 16.2689 0.83667 16.0569 0.83667 15.8359V8.33589C0.83667 8.11487 0.924467 7.90291 1.08075 7.74663C1.23703 7.59035 1.44899 7.50255 1.67 7.50255H4.17084ZM5.00417 10.0026V14.1859L5.04167 14.2142C6.53667 15.2642 8.48584 15.8359 10.8375 15.8359C13.3408 15.8359 15.6692 14.8726 17.3667 13.2276L17.4775 13.1167L17.3775 13.0334C16.9839 12.7255 16.5069 12.5426 16.0083 12.5084L15.8375 12.5026L14.0775 12.5017C14.1386 12.7706 14.1697 13.0484 14.1708 13.3351V14.1684H6.67084V12.5017H12.3292L12.3008 12.4359C12.1411 12.1023 11.8954 11.8172 11.589 11.61C11.2826 11.4027 10.9266 11.2808 10.5575 11.2567L10.4208 11.2526H7.97917C7.59131 10.8569 7.12842 10.5425 6.61759 10.3279C6.10676 10.1132 5.55826 10.0026 5.00417 10.0026ZM3.3375 9.16922H2.50417V15.0026H3.3375V9.16922ZM11.3758 2.98172L11.6708 3.27672L11.965 2.98172C12.3558 2.59097 12.8857 2.37145 13.4383 2.37145C13.9909 2.37145 14.5209 2.59097 14.9117 2.98172C15.3024 3.37247 15.5219 3.90245 15.5219 4.45505C15.5219 5.00766 15.3024 5.53763 14.9117 5.92839L11.67 9.16922L8.43 5.92755C8.23102 5.73537 8.07231 5.50549 7.96313 5.25131C7.85394 4.99714 7.79647 4.72376 7.79406 4.44714C7.79166 4.17052 7.84437 3.89618 7.94913 3.64015C8.05388 3.38412 8.20857 3.15151 8.40418 2.9559C8.59979 2.76029 8.8324 2.60559 9.08843 2.50084C9.34447 2.39609 9.6188 2.34338 9.89542 2.34578C10.172 2.34819 10.4454 2.40566 10.6996 2.51484C10.9538 2.62403 11.1837 2.78274 11.3758 2.98172ZM9.60834 4.16005C9.5394 4.22884 9.49673 4.3196 9.48775 4.41658C9.47877 4.51355 9.50404 4.61061 9.55917 4.69089L9.6075 4.74922L11.67 6.81172L13.7333 4.74922C13.8021 4.68033 13.8447 4.58951 13.8535 4.49254C13.8623 4.39557 13.8369 4.29857 13.7817 4.21839L13.7333 4.16005C13.6643 4.09116 13.5733 4.04867 13.4761 4.03999C13.379 4.03131 13.2818 4.05699 13.2017 4.11255L13.1433 4.16005L11.6692 5.63505L10.1967 4.16005L10.14 4.11172C10.0597 4.05626 9.96257 4.03072 9.86541 4.03955C9.76826 4.04839 9.67728 4.09103 9.60834 4.16005Z" fill="#959FB8"/>
</svg>
