<svg width="20" height="20" viewBox="0 0 20 20" fill="none" xmlns="http://www.w3.org/2000/svg">
<path d="M8.75 1.66665C9.27893 1.66657 9.78809 1.86768 10.1742 2.22918C10.5603 2.59069 10.7945 3.08553 10.8292 3.61332L10.8333 3.74998V7.58748L15.3683 8.09165C16.1546 8.17903 16.8841 8.5432 17.4266 9.11906C17.969 9.69491 18.2889 10.4449 18.3292 11.235L18.3333 11.4042V11.6667C18.3333 13.3987 17.6592 15.0627 16.4538 16.3064C15.2483 17.5501 13.6062 18.2759 11.875 18.33L11.6667 18.3333H11.105C9.90706 18.3333 8.73126 18.0105 7.70124 17.3988C6.67121 16.7872 5.82503 15.9093 5.25167 14.8575L5.1425 14.6483L2.77417 9.91165C2.47417 9.31165 2.69667 8.50915 3.39667 8.22165C4.26583 7.86582 5.09167 7.79915 5.9425 8.23165C6.1275 8.3261 6.30917 8.4411 6.4875 8.57665L6.66667 8.71832V3.74998C6.66667 3.19745 6.88616 2.66755 7.27686 2.27685C7.66756 1.88614 8.19747 1.66665 8.75 1.66665ZM4.16667 4.99998C4.38768 4.99998 4.59964 5.08778 4.75592 5.24406C4.9122 5.40034 5 5.6123 5 5.83332C5 6.05433 4.9122 6.26629 4.75592 6.42257C4.59964 6.57885 4.38768 6.66665 4.16667 6.66665H3.33333C3.11232 6.66665 2.90036 6.57885 2.74408 6.42257C2.5878 6.26629 2.5 6.05433 2.5 5.83332C2.5 5.6123 2.5878 5.40034 2.74408 5.24406C2.90036 5.08778 3.11232 4.99998 3.33333 4.99998H4.16667ZM14.1667 4.16665C14.3791 4.16689 14.5834 4.24822 14.7378 4.39403C14.8923 4.53983 14.9852 4.73911 14.9976 4.95115C15.0101 5.16318 14.9411 5.37197 14.8048 5.53485C14.6685 5.69772 14.4751 5.8024 14.2642 5.82749L14.1667 5.83332H13.3333C13.1209 5.83308 12.9166 5.75175 12.7622 5.60594C12.6077 5.46014 12.5148 5.26086 12.5024 5.04882C12.4899 4.83679 12.5589 4.628 12.6952 4.46512C12.8315 4.30225 13.0249 4.19757 13.2358 4.17248L13.3333 4.16665H14.1667ZM4.75583 1.07748L5.58917 1.91082C5.74096 2.06799 5.82496 2.27849 5.82306 2.49699C5.82116 2.71548 5.73352 2.92449 5.57902 3.079C5.42451 3.23351 5.2155 3.32115 4.997 3.32305C4.7785 3.32495 4.568 3.24095 4.41083 3.08915L3.5775 2.25582C3.4257 2.09865 3.34171 1.88815 3.3436 1.66965C3.3455 1.45115 3.43314 1.24214 3.58765 1.08764C3.74216 0.933129 3.95117 0.845489 4.16967 0.84359C4.38816 0.841691 4.59866 0.925686 4.75583 1.07748ZM13.9225 1.07748C14.0787 1.23376 14.1665 1.44568 14.1665 1.66665C14.1665 1.88762 14.0787 2.09955 13.9225 2.25582L13.0892 3.08915C13.0123 3.16874 12.9203 3.23223 12.8187 3.2759C12.717 3.31958 12.6076 3.34257 12.497 3.34353C12.3864 3.34449 12.2766 3.3234 12.1742 3.2815C12.0718 3.2396 11.9787 3.17772 11.9005 3.09948C11.8223 3.02124 11.7604 2.92819 11.7185 2.82578C11.6766 2.72337 11.6555 2.61363 11.6565 2.50298C11.6574 2.39233 11.6804 2.28298 11.7241 2.18131C11.7678 2.07964 11.8312 1.98769 11.9108 1.91082L12.7442 1.07748C12.9004 0.921259 13.1124 0.833496 13.3333 0.833496C13.5543 0.833496 13.7662 0.921259 13.9225 1.07748Z" fill="#2360D9"/>
</svg>
