<svg width="20" height="20" viewBox="0 0 20 20" fill="none" xmlns="http://www.w3.org/2000/svg">
<path d="M1.78571 7.38102C1.78571 6.27595 2.22469 5.21615 3.00609 4.43474C3.7875 3.65334 4.8473 3.21436 5.95237 3.21436H8.45237V4.88102H5.95237C5.28933 4.88102 4.65345 5.14441 4.18461 5.61326C3.71576 6.0821 3.45237 6.71798 3.45237 7.38102V9.88102H1.78571V7.38102ZM15.119 11.5477V14.0477C15.119 14.7107 14.8556 15.3466 14.3868 15.8155C13.918 16.2843 13.2821 16.5477 12.619 16.5477H10.119V18.2144H12.619C13.7241 18.2144 14.7839 17.7754 15.5653 16.994C16.3467 16.2126 16.7857 15.1528 16.7857 14.0477V11.5477H15.119Z" fill="#959FB8"/>
<path d="M5.35716 18.5715C4.31524 18.5715 3.31599 18.1576 2.57924 17.4208C1.84249 16.6841 1.42859 15.6848 1.42859 14.6429C1.42859 13.601 1.84249 12.6018 2.57924 11.865C3.31599 11.1283 4.31524 10.7144 5.35716 10.7144C6.39908 10.7144 7.39833 11.1283 8.13508 11.865C8.87183 12.6018 9.28573 13.601 9.28573 14.6429C9.28573 15.6848 8.87183 16.6841 8.13508 17.4208C7.39833 18.1576 6.39908 18.5715 5.35716 18.5715ZM5.35716 16.8255C5.93601 16.8255 6.49114 16.5955 6.90045 16.1862C7.30975 15.7769 7.5397 15.2218 7.5397 14.6429C7.5397 14.0641 7.30975 13.5089 6.90045 13.0996C6.49114 12.6903 5.93601 12.4604 5.35716 12.4604C4.77831 12.4604 4.22318 12.6903 3.81387 13.0996C3.40457 13.5089 3.17462 14.0641 3.17462 14.6429C3.17462 15.2218 3.40457 15.7769 3.81387 16.1862C4.22318 16.5955 4.77831 16.8255 5.35716 16.8255Z" fill="#959FB8"/>
<path d="M18.4286 1.42847L19.2857 3.1745V8.8491C19.2857 8.96487 19.2406 9.0759 19.1602 9.15776C19.0798 9.23962 18.9708 9.28561 18.8572 9.28561H11.1429C11.0292 9.28561 10.9202 9.23962 10.8398 9.15776C10.7594 9.0759 10.7143 8.96487 10.7143 8.8491V3.17624L11.5714 1.42847H18.4286ZM18.4286 4.04751H11.5714V8.41259H18.4286V4.04751ZM17.8989 2.30148H12.1016L11.673 3.1745H18.3274L17.8989 2.30148Z" fill="#959FB8" stroke="#959FB8" stroke-width="0.5"/>
</svg>
