<svg width="20" height="20" viewBox="0 0 20 20" fill="none" xmlns="http://www.w3.org/2000/svg">
<mask id="mask0_15_166" style="mask-type:luminance" maskUnits="userSpaceOnUse" x="2" y="0" width="16" height="20">
<path d="M15.8333 1.66675H4.16665C3.70641 1.66675 3.33331 2.03984 3.33331 2.50008V17.5001C3.33331 17.9603 3.70641 18.3334 4.16665 18.3334H15.8333C16.2935 18.3334 16.6666 17.9603 16.6666 17.5001V2.50008C16.6666 2.03984 16.2935 1.66675 15.8333 1.66675Z" stroke="white" stroke-width="2"/>
<path d="M3.33331 5.00008C3.33331 5.2211 3.42111 5.43306 3.57739 5.58934C3.73367 5.74562 3.94563 5.83341 4.16665 5.83341H15.8333C16.0543 5.83341 16.2663 5.74562 16.4226 5.58934C16.5788 5.43306 16.6666 5.2211 16.6666 5.00008V2.50008C16.6666 2.27907 16.5788 2.06711 16.4226 1.91083C16.2663 1.75455 16.0543 1.66675 15.8333 1.66675H4.16665C3.94563 1.66675 3.73367 1.75455 3.57739 1.91083C3.42111 2.06711 3.33331 2.27907 3.33331 2.50008V5.00008Z" fill="white" stroke="white" stroke-width="2"/>
<path d="M5.83333 4.58341C6.29357 4.58341 6.66667 4.21032 6.66667 3.75008C6.66667 3.28984 6.29357 2.91675 5.83333 2.91675C5.3731 2.91675 5 3.28984 5 3.75008C5 4.21032 5.3731 4.58341 5.83333 4.58341Z" fill="black"/>
<path d="M8.33333 4.58341C8.79357 4.58341 9.16667 4.21032 9.16667 3.75008C9.16667 3.28984 8.79357 2.91675 8.33333 2.91675C7.8731 2.91675 7.5 3.28984 7.5 3.75008C7.5 4.21032 7.8731 4.58341 8.33333 4.58341Z" fill="black"/>
<path d="M9.99998 15.0001C11.6108 15.0001 12.9166 13.6942 12.9166 12.0834C12.9166 10.4726 11.6108 9.16675 9.99998 9.16675C8.38915 9.16675 7.08331 10.4726 7.08331 12.0834C7.08331 13.6942 8.38915 15.0001 9.99998 15.0001Z" fill="white" stroke="white" stroke-width="2"/>
</mask>
<g mask="url(#mask0_15_166)">
<path d="M0 0H20V20H0V0Z" fill="#2360D9"/>
</g>
</svg>
