<svg width="102" height="19" viewBox="0 0 102 19" fill="none" xmlns="http://www.w3.org/2000/svg">
<g clip-path="url(#clip0_11_17)">
<path d="M4.50654 1.16003V15.231H13.2237V18.6943H0.608643V1.16003H4.50654Z" fill="#0052F4"/>
<path d="M17.23 18.3215C16.4879 17.8692 15.9126 17.2201 15.504 16.3742C15.0955 15.5283 14.8954 14.5316 14.8954 13.3841V6.08899H18.7099V12.7392C18.7099 13.7024 18.8975 14.4353 19.2769 14.9462C19.6562 15.4571 20.2024 15.7083 20.9152 15.7083C21.6281 15.7083 22.2451 15.4278 22.6703 14.8708C23.0956 14.3138 23.3123 13.5433 23.3123 12.5675V6.08899H27.1269V18.6984H23.3123V17.4086C22.5286 18.4681 21.3571 18.9999 19.798 18.9999C18.8266 18.9999 17.9678 18.7738 17.2258 18.3215H17.23Z" fill="#0052F4"/>
<path d="M40.0878 17.6766C38.9581 18.5603 37.6032 19 36.019 19C34.7475 19 33.6052 18.7152 32.5922 18.1499C31.5792 17.5845 30.7871 16.7972 30.2159 15.7921C29.6448 14.7871 29.3613 13.6564 29.3613 12.3917C29.3613 11.1269 29.6448 9.99624 30.2159 8.99117C30.7871 7.9861 31.5792 7.20299 32.5922 6.63345C33.6052 6.06809 34.7475 5.78333 36.019 5.78333C37.0904 5.78333 38.0701 5.9969 38.9539 6.41987C39.8377 6.84284 40.5673 7.42075 41.1384 8.15361C41.7095 8.88648 42.0681 9.69472 42.2098 10.5867H38.3536C38.1952 10.1428 37.9159 9.78685 37.5073 9.52302C37.0988 9.25919 36.6027 9.12518 36.019 9.12518C35.1352 9.12518 34.4223 9.43089 33.8887 10.0381C33.3509 10.6495 33.0841 11.4327 33.0841 12.3958C33.0841 13.359 33.3509 14.1422 33.8887 14.7536C34.4223 15.365 35.1352 15.6665 36.019 15.6665C36.6027 15.6665 37.1071 15.5283 37.5282 15.2561C37.9492 14.9839 38.2452 14.6196 38.4161 14.1589H42.2723C41.943 15.6204 41.2134 16.793 40.0878 17.6766Z" fill="#0052F4"/>
<path d="M47.9046 0.665859C48.3465 1.10976 48.5675 1.67093 48.5675 2.34516C48.5675 3.0194 48.3465 3.58056 47.9046 4.02447C47.4627 4.46837 46.9041 4.69032 46.2329 4.69032C45.5617 4.69032 45.0031 4.46837 44.5612 4.02447C44.1193 3.58056 43.8983 3.0194 43.8983 2.34516C43.8983 1.67093 44.1193 1.10976 44.5612 0.665859C45.0031 0.221953 45.5617 0 46.2329 0C46.9041 0 47.4627 0.221953 47.9046 0.665859ZM48.1422 18.7404H44.3277V6.08905H48.1422V18.7404Z" fill="#0052F4"/>
<path d="M61.0991 17.6766C59.9693 18.5603 58.6144 19 57.0303 19C55.7587 19 54.6165 18.7152 53.6034 18.1499C52.5904 17.5845 51.7983 16.7972 51.2272 15.7921C50.656 14.7871 50.3726 13.6564 50.3726 12.3917C50.3726 11.1269 50.656 9.99624 51.2272 8.99117C51.7983 7.9861 52.5904 7.20299 53.6034 6.63345C54.6165 6.06809 55.7587 5.78333 57.0303 5.78333C58.1017 5.78333 59.0813 5.9969 59.9651 6.41987C60.8489 6.84284 61.5785 7.42075 62.1496 8.15361C62.7208 8.88648 63.0793 9.69472 63.221 10.5867H59.3648C59.2064 10.1428 58.9271 9.78685 58.5185 9.52302C58.11 9.25919 57.6139 9.12518 57.0303 9.12518C56.1465 9.12518 55.4336 9.43089 54.9 10.0381C54.3622 10.6495 54.0954 11.4327 54.0954 12.3958C54.0954 13.359 54.3622 14.1422 54.9 14.7536C55.4336 15.365 56.1465 15.6665 57.0303 15.6665C57.6139 15.6665 58.1183 15.5283 58.5394 15.2561C58.9604 14.9839 59.2564 14.6196 59.4274 14.1589H63.2836C62.9542 15.6204 62.2247 16.793 61.0991 17.6766Z" fill="#404552"/>
<path d="M66.7979 18.1499C65.8683 17.5845 65.1471 16.7972 64.6343 15.7921C64.1215 14.7871 63.863 13.6564 63.863 12.3917C63.863 11.1269 64.1215 9.99624 64.6343 8.99117C65.1471 7.9861 65.8683 7.20299 66.7979 6.63345C67.7276 6.06809 68.7823 5.78333 69.9663 5.78333C71.5796 5.78333 72.7803 6.31517 73.564 7.37469V6.08485H77.3785V18.6943H73.564V17.4044C72.7803 18.464 71.5796 18.9958 69.9663 18.9958C68.7823 18.9958 67.7234 18.711 66.7979 18.1457V18.1499ZM72.7969 14.7913C73.3556 14.1673 73.6307 13.3674 73.6307 12.3917C73.6307 11.4159 73.3514 10.616 72.7969 9.99205C72.2425 9.36807 71.4963 9.05818 70.5708 9.05818C69.6453 9.05818 68.9491 9.36807 68.4071 9.99205C67.8652 10.616 67.5942 11.4159 67.5942 12.3917C67.5942 13.3674 67.8652 14.1673 68.4071 14.7913C68.9491 15.4152 69.6703 15.7293 70.5708 15.7293C71.4712 15.7293 72.2425 15.4152 72.7969 14.7913Z" fill="#404552"/>
<path d="M79.413 6.089H83.2275V7.37884C84.0112 6.31933 85.1827 5.78748 86.7419 5.78748C87.4255 5.78748 87.9758 5.85867 88.3927 6.00105L88.4344 9.59418C87.8925 9.30941 87.2421 9.16283 86.4834 9.16283C85.4703 9.16283 84.6741 9.43504 84.0946 9.97945C83.5151 10.5239 83.2275 11.2777 83.2275 12.2409V18.6942H79.413V6.089Z" fill="#404552"/>
<path d="M91.486 18.1499C90.4939 17.5845 89.7184 16.7972 89.164 15.7921C88.6053 14.7871 88.3302 13.6564 88.3302 12.3917C88.3302 11.1269 88.6095 9.99624 89.164 8.99117C89.7226 7.9861 90.4939 7.20299 91.486 6.63345C92.4782 6.06809 93.6038 5.78333 94.8587 5.78333C96.1135 5.78333 97.2391 6.06809 98.2313 6.63345C99.2235 7.1988 99.9989 7.9861 100.558 8.99117C101.116 9.99624 101.391 11.1269 101.391 12.3917C101.391 12.8062 101.362 13.2167 101.304 13.6187H92.1155C92.2573 14.3515 92.5741 14.9169 93.0577 15.3189C93.5413 15.721 94.1416 15.922 94.8587 15.922C95.4006 15.922 95.8842 15.834 96.3053 15.6539C96.7263 15.4739 97.014 15.2352 97.1724 14.9336H101.008C100.795 15.7377 100.395 16.4454 99.8071 17.0527C99.2235 17.6641 98.5023 18.1373 97.6435 18.4849C96.7888 18.8283 95.8592 19 94.8587 19C93.6038 19 92.4782 18.7152 91.486 18.1499ZM97.6643 11.1479C97.5059 10.3857 97.1849 9.81198 96.7013 9.41414C96.2135 9.02049 95.6007 8.82366 94.8587 8.82366C94.1166 8.82366 93.5079 9.02049 93.0369 9.41414C92.5658 9.80779 92.2531 10.3857 92.0947 11.1479H97.6643Z" fill="#404552"/>
</g>
<defs>
<clipPath id="clip0_11_17">
<rect width="100.783" height="19" fill="white" transform="translate(0.608643)"/>
</clipPath>
</defs>
</svg>
